<svg version="1.1" id="Layer_2" xmlns="http://www.w3.org/2000/svg" xmlns:xlink="http://www.w3.org/1999/xlink" x="0px" y="0px" viewBox="47.6 310.9 500 220" enable-background="new 47.6 310.9 500 220" xml:space="preserve">
                                        <g>
                                            <path d="M199.2,342.6h95.7c23.8,2.3,47.2,17.4,68.7,31.1c-0.5,0.5-0.9,0.9-1.4,1.4l0,0c-3.7,3.2-5.5,7.8-5.5,12.4
													c0,0.5,0,0.9,0,1.4l-218.4-8.2C161.2,361.9,174.9,342.6,199.2,342.6L199.2,342.6z"></path>
                                            <path d="M115.4,475.4c-21.5,0-33.4-11.4-33.9-11.9l-1.4-1.4v-28.4l0.5-0.9c0.9-1.8,3.2-7.3,3.2-11.9c0-4.1,0.5-10.5,0.5-16.9v-11
													c0.5-7.3,27.5-36.6,36.6-44.9v-9.6l4.6-2.7c18.8-4.1,55.4-6.4,80.6-6.4h89.3c33.4,2.7,64.6,22.9,92,40.3c5,3.2,9.6,7.8,14.2,10.5
													c2.3,0,4.6,0.5,8.2,0.9c51.7,5,100.3,11.9,104.9,32.1v62.3l-3.7,2.7c-6.9,1.4-13.3,2.3-27.9,2.3h-13.7v-9.2h14.2
													c11.9,0,17.9-0.5,22.4-1.4v-56.3c-2.3-9.6-34.8-17.9-96.2-23.8c-3.7-0.5-6.9-0.5-9.6-0.9l-1.8-0.5c-5-3.2-10.1-8.2-15.6-11.4
													c-27.9-17.9-56.8-36.2-87.5-38.5h-89.7c-22.9,0-55.9,1.8-75.1,5.5v8.2l-4.1,1.8c-4.6,2.7-30.7,34.3-32.5,40.3v10.5
													c0,6.4-0.9,12.8-0.9,16.9c0,6.4-1.8,12.8-3.7,15.6v19.7c3.2,2.7,12.4,10.5,26.6,10.1h5.5v9.2L115.4,475.4
													C114.5,475.4,115.9,475.4,115.4,475.4L115.4,475.4z M396.1,475.4H194.6v-9.2h201.5V475.4L396.1,475.4z"></path>
                                            <path d="M365.4,378.4L365.4,378.4c-2.7,2.7-4.1,6-4.1,9.6c0,1.4,0.5,2.7,1.4,3.7c0.9,0.9,1.8,1.4,3.2,1.4h10.5
													c1.8,0,3.2-0.9,4.1-2.3c0.9-1.4,0.9-3.7,0-5c-1.8-3.2-5-6.4-10.1-8.2C368.6,376.5,366.8,377,365.4,378.4L365.4,378.4z"></path>
                                            <path d="M367.2,390.7c-0.9,0-1.8-0.5-2.7-1.4l-6-8.2c-0.9-1.4-0.9-3.2,0.9-4.6c1.4-0.9,3.2-0.9,4.6,0.9l6,8.2
													c0.9,1.4,0.9,3.2-0.9,4.6C368.2,390.3,367.7,390.7,367.2,390.7L367.2,390.7z"></path>
                                            <path d="M90.2,406.7h8.2c7.8,0,17.9-5.5,18.3-12.4v-6H92.5C92.5,394.8,90.2,400.3,90.2,406.7L90.2,406.7z"></path>
                                            <path d="M478.1,402.2l11,20.1c3.7-2.3,9.2-4.1,13.3-4.1l0,0l0,0l0,0l0,0l0,0l0,0c2.7,0,5.5-1.8,8.7-1.8c0-8.2,0.9-8.7-6.4-14.2
													H478.1L478.1,402.2z"></path>
                                            <polygon points="299.9,406.7 277,406.7 277,402.2 299.9,402.2 	"></polygon>
                                            <polygon points="194.6,402.2 171.7,402.2 171.7,397.6 194.6,397.6 	"></polygon>
                                            <polygon points="222.1,450.7 222.1,457.1 371.4,457.1 	"></polygon>
                                            <path d="M508.7,436.1c-6.9,0-10.1,0-16.9,0c-3.7,3.7-3.7,8.2-3.7,12.8c6.9,0,13.7,0,20.6,0C508.7,444.8,508.7,440.2,508.7,436.1
													L508.7,436.1z"></path>
                                            <path d="M488.6,457.1c-1.4-2.7-1.4-6.4-1.4-9.2c6.9,0,7.3,0.5,14.2,0.5v8.7H488.6L488.6,457.1z"></path>
                                            <path d="M138.3,347.7l-44.4,38.9v-8.7c9.2-12.4,28.4-33.4,32.1-35.7L138.3,347.7L138.3,347.7z"></path>
                                            <path d="M126.8,500.2c-6-5-10.5-12.4-12.8-20.1h-2.3h-3.7v-4.6v-16c0-12.8,5-24.3,13.7-32.5c8.2-8.2,18.8-13.7,31.6-13.7l0,0
													c12.8,0,24.3,5,32.5,13.7h0.5c8.2,8.2,13.7,19.7,13.7,32.5v14.2v6.9h-4.6h-2.7c-2.3,7.8-6.9,15.1-12.8,20.1c-6.9,6-16,7.8-26.1,7.8
													s-19.2-3.7-26.1-9.6v1.4H126.8z M427.2,440.6c-14.7,0-27,11.9-27,27c0,14.7,11.9,27,27,27c14.7,0,27-11.9,27-27
													C453.8,452.5,441.9,440.6,427.2,440.6L427.2,440.6L427.2,440.6z M152.9,440.6c-14.7,0-27,11.9-27,27c0,14.7,11.9,27,27,27
													c14.7,0,27-11.9,27-27C179.5,452.5,167.6,440.6,152.9,440.6L152.9,440.6L152.9,440.6z M427.2,413.2L427.2,413.2
													c12.8,0,24.3,5,32.5,13.7h0.9c8.2,8.2,13.7,19.7,13.7,32.5v14.2v6.9h-4.6h-3.2c-2.3,7.8-6.9,15.1-12.8,20.1c-6.9,6-16,7.8-26.1,7.8
													s-19.2-3.7-26.1-9.6v1.8c-6-5-10.5-12.4-12.8-20.1h-2.3h-3.7v-4.6v-16c0-12.8,5-24.3,13.7-32.5
													C404.3,418.2,414.4,413.2,427.2,413.2L427.2,413.2L427.2,413.2z M427.2,457.1c6,0,10.5,4.6,10.5,10.5s-4.6,10.5-10.5,10.5
													c-6,0-10.5-4.6-10.5-10.5S421.3,457.1,427.2,457.1L427.2,457.1L427.2,457.1z M152.9,457.1c-6,0-10.5,4.6-10.5,10.5
													s4.6,10.5,10.5,10.5c6,0,10.5-4.6,10.5-10.5C163,461.7,158.4,457.1,152.9,457.1L152.9,457.1z"></path>
                                        </g>
                                    </svg>