<svg version="1.1" id="Layer_4" xmlns="http://www.w3.org/2000/svg" xmlns:xlink="http://www.w3.org/1999/xlink" x="0px" y="0px" viewBox="47.6 310.9 500 220" enable-background="new 47.6 310.9 500 220" xml:space="preserve">
                                        <g>
                                            <path d="M249.1,378.4h-0.9c-4.1,0.5-6,4.1-7.3,8.2l-2.3,8.7c-4.1,12.8,19.2,12.8,18.8,1.8v-11.4
													C256.9,381.1,253.7,377.9,249.1,378.4L249.1,378.4z"></path>
                                            <path d="M142,488.3c-21.1,0-41.7-14.2-42.6-14.7l-2.3-1.4v-32.1l2.3-1.4c0.9-1.8,2.3-7.3,2.3-11.9v-30.2l58.6-3.7
													c25.2-1.4,40.8,1.4,58.2,4.1c9.6,1.4,19.7,3.2,31.6,4.1h95.2c5.5,0,11-0.9,16.9-1.4c6-0.9,11.9-1.8,18.3-1.8
													c0.9,0,38.9,4.1,69.6,11.9c33,8.2,44,21.5,45.3,27.5l2.7,47.2l-4.1,0.9c-7.8,1.8-14.2,2.7-31.1,2.7h-18.3v-9.2h16
													c12.8,0,19.7-0.5,25.2-1.8v-2.7v-35.7c-0.5-1.4-9.6-11.9-38-19.2c-29.8-7.8-67.3-11.9-67.8-11.9c-5,0-10.5,0.5-16.5,1.4
													c-6,0.9-11.9,1.8-18.3,1.8h-95.7c-12.8-0.9-22.9-2.7-33-4.1c-16.5-2.7-31.6-4.6-55.9-3.7l-49.9,2.7v21.5c0,6.4-3.2,12.8-4.6,15.6
													v23.8c6,3.7,22.9,12.4,38,11.9h12.4v9.2h-14.2C142,488.3,142.4,488.3,142,488.3L142,488.3z M394.7,488.3H207v-9.2h187.7V488.3
													L394.7,488.3z"></path>
                                            <path d="M106.2,415.9c0,4.6-1.8,9.6-1.8,12.4h6.4c7.8,0,17.9-6,18.3-12.4v-6h-22.9V415.9L106.2,415.9L106.2,415.9z"></path>
                                            <path d="M458.8,433.3l9.2,16.5c3.2-1.8,7.3-2.7,11-2.7l0,0l0,0l0,0l0,0l0,0l0,0c4.6,0,9.6,0,14.2,0v-0.9c-0.5-1.4-5-9.2-9.6-12.8
													C475.3,433.3,467.1,433.3,458.8,433.3L458.8,433.3z"></path>
                                            <path d="M213.4,488.3c-1.8,3.7-4.1,6.9-6.9,9.6l0,0c-6.4,6.4-14.7,10.1-24.3,10.1s-17.9-4.1-24.3-10.1c-2.7-2.7-5-6-6.9-9.6h-4.6
													h-3.7v-4.6v-12.4c0-11,4.6-21.5,11.9-28.8c7.3-7.3,16.5-11.9,27.5-11.9l0,0c11,0,21.1,4.1,28.8,11.4l0,0h2.3
													c7.3,7.3,11.9,17.4,11.9,28.8v12.4v4.6h-4.6h-7.3V488.3L213.4,488.3z M420.4,449.3c-13.3,0-23.8,10.5-23.8,23.8
													s10.5,23.8,23.8,23.8c13.3,0,23.8-10.5,23.8-23.8C444.6,460.3,433.6,449.3,420.4,449.3L420.4,449.3L420.4,449.3z M182.2,449.3
													c-13.3,0-23.8,10.5-23.8,23.8S169,497,182.2,497s23.8-10.5,23.8-23.8C206.5,460.3,195.5,449.3,182.2,449.3L182.2,449.3L182.2,449.3
													z M420.4,431L420.4,431c11,0,21.1,4.1,28.8,11.4l0,0h2.3c7.3,7.3,11.9,17.4,11.9,28.8v12.4v4.6h-4.6h-7.3c-1.8,3.7-4.1,6.9-6.9,9.6
													c-6.4,6.4-14.7,10.1-24.3,10.1c-9.6,0-17.9-3.7-24.3-10.1l0,0c-2.7-2.7-5-6-6.9-9.6h-4.6H381v-4.6v-12.4c0-11,4.6-21.1,11.9-28.8
													H392l0,0C399.3,435.6,409.4,431,420.4,431L420.4,431z"></path>
                                            <path d="M420.4,464.9c-4.6,0-8.7,3.7-8.7,8.7c0,4.6,4.1,8.7,8.7,8.7s8.7-3.7,8.7-8.7C429.1,468.6,425.4,464.9,420.4,464.9
													L420.4,464.9z"></path>
                                            <polygon points="266.5,424.2 243.6,424.2 243.6,419.6 266.5,419.6 	"></polygon>
                                            <path d="M182.2,464.9c-5,0-8.7,3.7-8.7,8.7c0,4.6,3.7,8.7,8.7,8.7c4.6,0,8.7-3.7,8.7-8.7C190.9,468.6,187.3,464.9,182.2,464.9
													L182.2,464.9z"></path>
                                            <polygon points="234.4,464 234.4,469.9 367.7,469.9 	"></polygon>
                                            <polygon points="490.9,469.9 481.7,469.9 481.7,465.4 490.9,465.4 	"></polygon>
                                            <path d="M483.1,460.8h-6.9c-1.8,0-3.2,1.8-3.2,3.7v2.3c0,1.8,1.4,3.2,3.2,3.2h6.9c1.8,0,3.2-1.4,3.2-3.2v-2.3
													C486.3,462.2,484.9,460.8,483.1,460.8L483.1,460.8z"></path>
                                            <path d="M101.7,465.4v13.3h36.6v-0.9C123.6,476.4,107.6,469,101.7,465.4L101.7,465.4z"></path>
                                            <path d="M185,376.1L185,376.1c-4.1,0.5-6,4.1-6.9,8.2l-2.7,8.7c-0.5,0.9-0.5,1.4-0.5,1.8c6.4,0.5,11.9,0.9,18.3,1.4
													c0-0.5,0-0.9,0-1.4v-11.4C192.8,378.8,189.6,375.6,185,376.1L185,376.1z"></path>
                                            <path d="M383.3,398.5c0,0-46.7-28.4-65.9-34.3c-2.3-0.9-4.6-1.4-6.9-1.8l0,0c-2.3-0.5-5-0.9-7.8-1.4l-1.8,9.2
													c24.3,6,33.9,21.1,54.9,33.9c3.2,1.8,19.2,0.9,22.4,2.7L383.3,398.5L383.3,398.5z"></path>
                                            <path d="M337.5,400.8L337.5,400.8c-2.7,2.7-4.1,6-4.1,9.6c0,1.4,0.5,2.3,1.4,3.2c0.9,0.9,1.8,1.4,3.2,1.4H348
													c1.8,0,3.2-0.9,4.1-2.3c0.9-1.4,0.9-3.2,0-4.6c-1.8-3.2-5-6.4-10.1-8.2C340.2,399,338.4,399.4,337.5,400.8L337.5,400.8z"></path>
                                            <path d="M345.7,412.7c-0.9,0-1.8-0.5-2.7-1.4l-6-8.2c-0.9-1.4-0.9-3.2,0.5-4.6c1.4-0.9,3.2-0.9,4.6,0.9l6,8.2
													c0.9,1.4,0.9,3.2-0.9,4.6C347.1,412.7,346.6,412.7,345.7,412.7L345.7,412.7z"></path>
                                        </g>
                                    </svg>