<svg version="1.1" id="Layer_5" xmlns="http://www.w3.org/2000/svg" xmlns:xlink="http://www.w3.org/1999/xlink" x="0px" y="0px" viewBox="47.6 310.9 500 220" enable-background="new 47.6 310.9 500 220" xml:space="preserve">
                                        <g>
                                            <path d="M207.9,399.4c-9.2,0-34.8-2.3-48.1-9.6c20.6-11,57.2-23.8,76-23.8c16.5,0,36.6,0,52.7,0c25.2,0,46.2,9.2,66.9,20.6
													c-3.2,3.2-5,6.4-5.5,11.4c0,0.5,0,0.9,0,1.4H207.9L207.9,399.4z"></path>
                                            <path d="M134.6,486.4c-21.1,0-45.3-12.4-46.7-12.8l-2.3-1.4v-32.1l-1.4-0.9c0.9-1.8,6-7.3,6-11.9v-29.8l17.9-4.1
													c24.3-11.4,90.7-34.3,134.6-34.3h54.9c12.4,0.9,22.9,3.2,32.1,5.5c17.9,5.5,58.6,30.2,65,34.3c6.4,0.9,40.3,5,67.8,11.9
													c33,8.2,44,21.5,45.3,27.5l2.7,47.2l-4.1-0.9c-7.8,1.8-14.2,2.7-31.1,2.7h-18.8v-9.2h13.7c12.8,0,22-0.5,27.5-1.8v-0.9v-35.7
													c-0.5-1.4-9.6-11.9-38-19.2c-29.8-7.8-66.9-11.9-67.3-11.9l-1.8-0.5c-0.5-0.5-45.8-28.8-64.1-34.3c-8.2-2.3-18.3-4.1-29.3-5.5h-54
													c-42.6,0-104.4,22.9-127.8,33.9l-4.6,1.4l-11,2.3v22c0,6.4-3.2,12.8-4.6,15.6v22.9c6,3.7,22.9,12.4,38,11.9h12.4v9.2h-12.4
													C132.8,486.4,135.1,486.4,134.6,486.4L134.6,486.4z M402,486.4H200.6v-9.2H402V486.4L402,486.4z"></path>
                                            <path d="M99.8,414.1c0,4.6-2.3,9.6-2.7,12.4h6.9c7.8,0,17.9-6,18.3-12.4v-6H99.4L99.8,414.1L99.8,414.1L99.8,414.1z"></path>
                                            <path d="M471.6,433.3l9.2,16.5c2.7-1.8,7.3-2.7,11-2.7l0,0l0,0l0,0l0,0l0,0l0,0c4.6,0,9.6,0,14.2,0v-0.9c-0.5-1.4-5-9.2-9.6-12.8
													C487.7,433.3,479.9,433.3,471.6,433.3L471.6,433.3z"></path>
                                            <polygon points="310.5,426.9 287.6,426.9 287.6,422.3 310.5,422.3 	"></polygon>
                                            <polygon points="214.3,426.9 191.4,426.9 191.4,422.3 214.3,422.3 	"></polygon>
                                            <polygon points="232.6,459.9 232.6,468.1 381.9,468.1 	"></polygon>
                                            <polygon points="502.8,468.1 493.6,468.1 493.6,463.5 502.8,463.5 	"></polygon>
                                            <path d="M494.5,463.5h-6.9c-1.8,0-3.2-0.9-3.2,0.9v4.6c0,1.8,1.4,3.2,3.2,3.2h6.9c1.8,0,3.2-1.4,3.2-3.2v-2.3
													C498.2,464.9,496.8,463.5,494.5,463.5L494.5,463.5z"></path>
                                            <path d="M359,396.2L359,396.2c-2.7,2.7-4.1,6-4.1,9.6c0,1.4,0.5,0.5,1.4,1.4c0.9,0.9,1.8,1.4,3.2,1.4H370c1.8,0,3.2-0.9,4.1-2.3
													c0.9-1.4,0.9-0.9,0-2.7c-1.8-3.2-5-6.4-10.1-8.2C362.2,394.4,360.4,394.8,359,396.2L359,396.2z"></path>
                                            <path d="M367.7,415.5c-0.9,0-1.8-0.5-2.7-1.4l-6-8.2c-0.9-1.4-0.9-3.2,0.9-4.6c1.4-0.9,3.2-0.9,4.6,0.9l6,8.2
													c0.9,1.4,0.9,3.2-0.9,4.6C369.1,415,368.6,415.5,367.7,415.5L367.7,415.5z"></path>
                                            <path d="M95.2,463.5v13.3h35.3l-0.5-0.9C115.4,474.5,101.2,467.2,95.2,463.5L95.2,463.5z"></path>
                                            <path d="M175.4,431L175.4,431c11,0,21.1,4.6,28.8,11.9l0,0h-1.4c7.3,7.3,11.9,17.4,11.9,28.8v11.9v2.7h-4.6h-8.7
													c2.7-4.6,4.1-9.6,4.1-14.7c0-16-13.3-27.5-29.3-27.5s-29.3,11-29.3,27.5c0,5.5,1.4,10.5,4.1,14.7h-10.5h-3.2v-4.6v-10.5
													c0-11,4.6-21.1,11.9-28.8h-1.8l0,0C153.9,435.6,163.9,431,175.4,431L175.4,431z"></path>
                                            <path d="M151.1,449.3c6.4-6.4,14.7-10.1,24.3-10.1c9.6,0,17.9,3.7,24.3,10.1l0,0c6.4,6.4,10.1,14.7,10.1,24.3
													c0,9.6-3.7,17.9-10.1,24.3l0,0c-6.4,6.4-14.7,10.1-24.3,10.1c-9.6,0-17.9-3.7-24.3-10.1c-6.4-6.4-10.1-14.7-10.1-24.3
													C141,464,144.7,455.3,151.1,449.3L151.1,449.3L151.1,449.3L151.1,449.3z M175.4,449.3c-13.3,0-23.8,10.5-23.8,23.8
													s10.5,23.8,23.8,23.8c13.3,0,23.8-10.5,23.8-23.8C199.2,460.3,188.7,449.3,175.4,449.3L175.4,449.3z"></path>
                                            <path d="M175.4,464.9c-5,0-8.7,4.1-8.7,8.7c0,5,3.7,8.7,8.7,8.7c4.6,0,8.7-3.7,8.7-8.7C184.1,468.6,180,464.9,175.4,464.9
													L175.4,464.9z"></path>
                                            <path d="M432.7,431L432.7,431c11,0,21.1,4.6,28.8,11.9l0,0h1.8c7.3,7.3,11.9,17.4,11.9,28.8v11.9v2.7h-4.6h-11.9
													c2.7-4.6,4.1-9.6,4.1-14.7c0-16-13.3-27.5-29.3-27.5s-29.3,11-29.3,27.5c0,5.5,1.4,10.5,4.1,14.7h-10.5h-4.6v-4.6v-10.5
													c0-11,4.6-21.1,11.9-28.8h-0.5l0,0C411.7,435.6,421.7,431,432.7,431L432.7,431z"></path>
                                            <path d="M408.5,449.3c6.4-6.4,14.7-10.1,24.3-10.1c9.6,0,17.9,3.7,24.3,10.1l0,0c6.4,6.4,10.1,14.7,10.1,24.3
													c0,9.6-3.7,17.9-10.1,24.3l0,0c-6.4,6.4-14.7,10.1-24.3,10.1c-9.6,0-17.9-3.7-24.3-10.1c-6.4-6.4-10.1-14.7-10.1-24.3
													C398.8,464,402.5,455.3,408.5,449.3L408.5,449.3L408.5,449.3L408.5,449.3z M432.7,449.3c-13.3,0-23.8,10.5-23.8,23.8
													s10.5,23.8,23.8,23.8c13.3,0,23.8-10.5,23.8-23.8C457,460.3,446,449.3,432.7,449.3L432.7,449.3z"></path>
                                            <path d="M432.7,464.9c-4.6,0-8.7,4.1-8.7,8.7c0,5,3.7,8.7,8.7,8.7c4.6,0,8.7-3.7,8.7-8.7C441.9,468.6,437.8,464.9,432.7,464.9
													L432.7,464.9z"></path>
                                        </g>
                                    </svg>